<svg xmlns="http://www.w3.org/2000/svg" xmlns:xlink="http://www.w3.org/1999/xlink" version="1.2" width="210.00mm" height="297.00mm" viewBox="0 0 119.5016 169.0094">
<style type="text/css">
<![CDATA[
tspan { white-space: pre; }
]]>
</style>
<!-- Page: 3/3 -->
<g transform="translate(112.4111, 4.4842)">
<text font-family="serif" font-size="2.2001" text-anchor="start" fill="currentColor">
<tspan>3</tspan>
</text>
</g>
<g transform="translate(112.0261, 12.6110)">
<path transform="scale(0.0040, -0.0040)" d="M40.5715 48.7153c-24.787 -4.4394 -40.5715 -26.1676 -40.5715 -49.0266c0 -9.33609 2.63296 -18.8608 8.36093 -27.4734c9.38157 -14.0427 25.0712 -21.6471 41.0626 -21.6471c9.523 0 19.153 2.6968 27.6216 8.3366c14.0763 9.3842 21.6921 25.0797 21.6921 41.0756
c0 9.51876 -2.6969 19.1439 -8.3342 27.6086c-9.0068 13.5103 -25.3458 21.8428 -41.6654 21.8428c-2.7341 0 -5.4677 -0.2339 -8.1661 -0.7165z" fill="currentColor"/>
</g>
<g transform="translate(112.0261, 13.6110)">
<path transform="scale(0.0040, -0.0040)" d="M40.5715 48.7153c-24.787 -4.4394 -40.5715 -26.1676 -40.5715 -49.0266c0 -9.33609 2.63296 -18.8608 8.36093 -27.4734c9.38157 -14.0427 25.0712 -21.6471 41.0626 -21.6471c9.523 0 19.153 2.6968 27.6216 8.3366c14.0763 9.3842 21.6921 25.0797 21.6921 41.0756
c0 9.51876 -2.6969 19.1439 -8.3342 27.6086c-9.0068 13.5103 -25.3458 21.8428 -41.6654 21.8428c-2.7341 0 -5.4677 -0.2339 -8.1661 -0.7165z" fill="currentColor"/>
</g>
<g transform="translate(113.2110, 13.1110)">
<rect x="0.0000" y="-2.0000" width="0.6000" height="4.0500" ry="0.0000" fill="currentColor"/>
</g>
<g transform="translate(112.7210, 13.1110)">
<rect x="0.0000" y="-2.0000" width="0.1900" height="4.0500" ry="0.0000" fill="currentColor"/>
</g>
<g transform="translate(112.0261, 20.3533)">
<path transform="scale(0.0040, -0.0040)" d="M40.5715 48.7153c-24.787 -4.4394 -40.5715 -26.1676 -40.5715 -49.0266c0 -9.33609 2.63296 -18.8608 8.36093 -27.4734c9.38157 -14.0427 25.0712 -21.6471 41.0626 -21.6471c9.523 0 19.153 2.6968 27.6216 8.3366c14.0763 9.3842 21.6921 25.0797 21.6921 41.0756
c0 9.51876 -2.6969 19.1439 -8.3342 27.6086c-9.0068 13.5103 -25.3458 21.8428 -41.6654 21.8428c-2.7341 0 -5.4677 -0.2339 -8.1661 -0.7165z" fill="currentColor"/>
</g>
<g transform="translate(112.0261, 23.3533)">
<path transform="scale(0.0040, -0.0040)" d="M40.5715 48.7153c-24.787 -4.4394 -40.5715 -26.1676 -40.5715 -49.0266c0 -9.33609 2.63296 -18.8608 8.36093 -27.4734c9.38157 -14.0427 25.0712 -21.6471 41.0626 -21.6471c9.523 0 19.153 2.6968 27.6216 8.3366c14.0763 9.3842 21.6921 25.0797 21.6921 41.0756
c0 9.51876 -2.6969 19.1439 -8.3342 27.6086c-9.0068 13.5103 -25.3458 21.8428 -41.6654 21.8428c-2.7341 0 -5.4677 -0.2339 -8.1661 -0.7165z" fill="currentColor"/>
</g>
<g transform="translate(113.2110, 21.8533)">
<rect x="0.0000" y="-2.3000" width="0.6000" height="4.5500" ry="0.0000" fill="currentColor"/>
</g>
<g transform="translate(112.7210, 21.8533)">
<rect x="0.0000" y="-2.3000" width="0.1900" height="4.5500" ry="0.0000" fill="currentColor"/>
</g>
<g transform="translate(15.1964, 10.5560)">
<rect x="0.0000" y="4.6049" width="0.1900" height="4.4424" ry="0.0000" fill="currentColor"/>
</g>
<g transform="translate(14.2964, 10.5560)">
<rect x="0.0000" y="4.6049" width="0.6000" height="4.4424" ry="0.0000" fill="currentColor"/>
</g>
<g transform="translate(43.6973, 10.5560)">
<rect x="0.0000" y="4.6049" width="0.1900" height="4.4424" ry="0.0000" fill="currentColor"/>
</g>
<g transform="translate(84.3591, 21.8533)">
<rect x="0.0000" y="-2.3000" width="0.1900" height="4.5500" ry="0.0000" fill="currentColor"/>
</g>
<g transform="translate(15.6864, 20.3533)">
<path transform="scale(0.0040, -0.0040)" d="M40.5715 48.7153c-24.787 -4.4394 -40.5715 -26.1676 -40.5715 -49.0266c0 -9.33609 2.63296 -18.8608 8.36093 -27.4734c9.38157 -14.0427 25.0712 -21.6471 41.0626 -21.6471c9.523 0 19.153 2.6968 27.6216 8.3366c14.0763 9.3842 21.6921 25.0797 21.6921 41.0756
c0 9.51876 -2.6969 19.1439 -8.3342 27.6086c-9.0068 13.5103 -25.3458 21.8428 -41.6654 21.8428c-2.7341 0 -5.4677 -0.2339 -8.1661 -0.7165z" fill="currentColor"/>
</g>
<g transform="translate(15.6864, 23.3533)">
<path transform="scale(0.0040, -0.0040)" d="M40.5715 48.7153c-24.787 -4.4394 -40.5715 -26.1676 -40.5715 -49.0266c0 -9.33609 2.63296 -18.8608 8.36093 -27.4734c9.38157 -14.0427 25.0712 -21.6471 41.0626 -21.6471c9.523 0 19.153 2.6968 27.6216 8.3366c14.0763 9.3842 21.6921 25.0797 21.6921 41.0756
c0 9.51876 -2.6969 19.1439 -8.3342 27.6086c-9.0068 13.5103 -25.3458 21.8428 -41.6654 21.8428c-2.7341 0 -5.4677 -0.2339 -8.1661 -0.7165z" fill="currentColor"/>
</g>
<g transform="translate(15.1964, 21.8533)">
<rect x="0.0000" y="-2.3000" width="0.1900" height="4.5500" ry="0.0000" fill="currentColor"/>
</g>
<g transform="translate(14.2964, 21.8533)">
<rect x="0.0000" y="-2.3000" width="0.6000" height="4.5500" ry="0.0000" fill="currentColor"/>
</g>
<g transform="translate(113.2110, 10.5560)">
<rect x="0.0000" y="4.6049" width="0.6000" height="4.4424" ry="0.0000" fill="currentColor"/>
</g>
<g transform="translate(112.7210, 10.5560)">
<rect x="0.0000" y="4.6049" width="0.1900" height="4.4424" ry="0.0000" fill="currentColor"/>
</g>
<g transform="translate(56.6763, 21.8533)">
<rect x="0.0000" y="-2.3000" width="0.1900" height="4.5500" ry="0.0000" fill="currentColor"/>
</g>
<g transform="translate(84.3591, 10.5560)">
<rect x="0.0000" y="4.6049" width="0.1900" height="4.4424" ry="0.0000" fill="currentColor"/>
</g>
<g transform="translate(15.6864, 12.6110)">
<path transform="scale(0.0040, -0.0040)" d="M40.5715 48.7153c-24.787 -4.4394 -40.5715 -26.1676 -40.5715 -49.0266c0 -9.33609 2.63296 -18.8608 8.36093 -27.4734c9.38157 -14.0427 25.0712 -21.6471 41.0626 -21.6471c9.523 0 19.153 2.6968 27.6216 8.3366c14.0763 9.3842 21.6921 25.0797 21.6921 41.0756
c0 9.51876 -2.6969 19.1439 -8.3342 27.6086c-9.0068 13.5103 -25.3458 21.8428 -41.6654 21.8428c-2.7341 0 -5.4677 -0.2339 -8.1661 -0.7165z" fill="currentColor"/>
</g>
<g transform="translate(15.6864, 13.6110)">
<path transform="scale(0.0040, -0.0040)" d="M40.5715 48.7153c-24.787 -4.4394 -40.5715 -26.1676 -40.5715 -49.0266c0 -9.33609 2.63296 -18.8608 8.36093 -27.4734c9.38157 -14.0427 25.0712 -21.6471 41.0626 -21.6471c9.523 0 19.153 2.6968 27.6216 8.3366c14.0763 9.3842 21.6921 25.0797 21.6921 41.0756
c0 9.51876 -2.6969 19.1439 -8.3342 27.6086c-9.0068 13.5103 -25.3458 21.8428 -41.6654 21.8428c-2.7341 0 -5.4677 -0.2339 -8.1661 -0.7165z" fill="currentColor"/>
</g>
<g transform="translate(15.1964, 13.1110)">
<rect x="0.0000" y="-2.0000" width="0.1900" height="4.0500" ry="0.0000" fill="currentColor"/>
</g>
<g transform="translate(14.2964, 13.1110)">
<rect x="0.0000" y="-2.0000" width="0.6000" height="4.0500" ry="0.0000" fill="currentColor"/>
</g>
<g transform="translate(56.6763, 10.5560)">
<rect x="0.0000" y="4.6049" width="0.1900" height="4.4424" ry="0.0000" fill="currentColor"/>
</g>
<g transform="translate(43.6973, 21.8533)">
<rect x="0.0000" y="-2.3000" width="0.1900" height="4.5500" ry="0.0000" fill="currentColor"/>
</g>
<g transform="translate(56.6763, 13.1110)">
<rect x="0.0000" y="-2.0000" width="0.1900" height="4.0500" ry="0.0000" fill="currentColor"/>
</g>
<g transform="translate(84.3591, 13.1110)">
<rect x="0.0000" y="-2.0000" width="0.1900" height="4.0500" ry="0.0000" fill="currentColor"/>
</g>
<g transform="translate(5.6906, 24.1033)">
<line stroke-linejoin="round" stroke-linecap="round" stroke-width="0.1000" stroke="currentColor" x1="0.0500" y1="0" x2="108.0705" y2="0"/>
</g>
<g transform="translate(5.6906, 22.6033)">
<line stroke-linejoin="round" stroke-linecap="round" stroke-width="0.1000" stroke="currentColor" x1="0.0500" y1="0" x2="108.0705" y2="0"/>
</g>
<g transform="translate(5.6906, 21.1033)">
<line stroke-linejoin="round" stroke-linecap="round" stroke-width="0.1000" stroke="currentColor" x1="0.0500" y1="0" x2="108.0705" y2="0"/>
</g>
<g transform="translate(5.6906, 19.6033)">
<line stroke-linejoin="round" stroke-linecap="round" stroke-width="0.1000" stroke="currentColor" x1="0.0500" y1="0" x2="108.0705" y2="0"/>
</g>
<g transform="translate(5.6906, 15.1110)">
<line stroke-linejoin="round" stroke-linecap="round" stroke-width="0.1000" stroke="currentColor" x1="0.0500" y1="0" x2="108.0705" y2="0"/>
</g>
<g transform="translate(5.6906, 14.1110)">
<line stroke-linejoin="round" stroke-linecap="round" stroke-width="0.1000" stroke="currentColor" x1="0.0500" y1="0" x2="108.0705" y2="0"/>
</g>
<g transform="translate(5.6906, 13.1110)">
<line stroke-linejoin="round" stroke-linecap="round" stroke-width="0.1000" stroke="currentColor" x1="0.0500" y1="0" x2="108.0705" y2="0"/>
</g>
<g transform="translate(5.6906, 12.1110)">
<line stroke-linejoin="round" stroke-linecap="round" stroke-width="0.1000" stroke="currentColor" x1="0.0500" y1="0" x2="108.0705" y2="0"/>
</g>
<g transform="translate(5.6906, 11.1110)">
<line stroke-linejoin="round" stroke-linecap="round" stroke-width="0.1000" stroke="currentColor" x1="0.0500" y1="0" x2="108.0705" y2="0"/>
</g>
<g transform="translate(43.6973, 13.1110)">
<rect x="0.0000" y="-2.0000" width="0.1900" height="4.0500" ry="0.0000" fill="currentColor"/>
</g>
<g transform="translate(85.8298, 10.1624)">
<text font-family="sans-serif" font-size="2.6163" text-anchor="start" fill="currentColor">
<tspan>D</tspan>
</text>
</g>
<g transform="translate(88.0033, 9.8624)">
<path transform="scale(0.0042, -0.0042)" d="M-5.96842 455.637c-3.31579 -1.279 -6.96318 -4.974 -8.24208 -8.337l-0.9474 -2.558v-298.847v-298.848l0.9474 -2.558c2.1316 -5.636 7.72103 -9.331 14.2105 -9.331c5.92105 0 7.24737 0.805 17.6211 10.563c17.9052 16.816 25.2473 23.495 56.5105 51.49
c57.8364 51.7732 78.7264 74.6522 94.4524 103.405c11.26 20.5251 16.622 41.6074 16.622 61.0665c0 35.5534 -17.901 65.6887 -50.443 77.1067c-10.801 3.785 -21.893 5.659 -33.116 5.659c-28.2506 0 -57.3312 -11.873 -84.6891 -35.027l-1.8 -1.468v168.394
c0 168.064 0 168.395 -0.9474 170.953c-2.1403 5.768 -8.19819 9.397 -14.4711 9.397c-1.91777 0 -3.85565 -0.339 -5.70783 -1.06zM82.4211 95.4474c12.0789 -2.7 20.9839 -10.9421 22.9739 -21.2211c0.784 -4.1014 1.167 -8.4966 1.167 -13.1483
c0 -44.2367 -34.6605 -111.671 -88.7515 -170.262l-2.6052 -2.842l-0.0474 85.2155v85.2158l3.5053 5.2579c12.3157 18.521 29.2263 29.9368 48.3631 32.6842c0.7115 0.1049 1.7962 0.1525 3.0789 0.1525c3.927 0 9.7094 -0.4455 12.3159 -1.0525z" fill="currentColor"/>
</g>
<g transform="translate(88.7881, 8.9732)">
<text font-family="sans-serif" font-size="1.8500" text-anchor="start" fill="currentColor">
<tspan>9</tspan>
</text>
</g>
<g transform="translate(85.8948, 13.1110)">
<rect x="-0.0650" y="0.1461" width="0.1300" height="2.8539" ry="0.0400" fill="currentColor"/>
</g>
<g color="rgb(100.0000%, 100.0000%, 100.0000%)">
<g transform="translate(85.8298, 22.6033)">
<rect x="0.1229" y="-0.6487" width="1.2292" height="1.2974" ry="0.0000" fill="currentColor"/>
</g>
</g>
<g transform="translate(85.9528, 23.2520)">
<text font-family="serif" font-weight="bold" font-size="1.7461" text-anchor="start" fill="currentColor">
<tspan>4</tspan>
</text>
</g>
<g transform="translate(85.8298, 13.1110)">
<path transform="scale(0.0040, -0.0040)" d="M187.183 134.281c-101.52 -10.366 -187.183 -91.0474 -187.183 -170.141c0 -6.9305 0.65771 -13.8488 2.02009 -20.7065c9.91611 -49.7954 56.5823 -77.9434 113.55 -77.9434c30.93 0 64.896 8.298 97.666 25.933c67.899 36.5685 102.496 94.7147 102.496 145.048
c0 47.0724 -30.26 87.3105 -91.838 96.6735c-4.928 0.774 -19.404 1.366 -29.043 1.366c-3.332 0 -6.086 -0.071 -7.668 -0.229z" fill="currentColor"/>
</g>
<g transform="translate(82.1736, 13.1110)">
<rect x="-0.0650" y="-0.8100" width="0.1300" height="3.1639" ry="0.0400" fill="currentColor"/>
</g>
<g color="rgb(100.0000%, 100.0000%, 100.0000%)">
<g transform="translate(80.9757, 24.1033)">
<rect x="0.1229" y="-0.6487" width="1.2292" height="1.2974" ry="0.0000" fill="currentColor"/>
</g>
</g>
<g transform="translate(81.0986, 24.7520)">
<text font-family="serif" font-weight="bold" font-size="1.7461" text-anchor="start" fill="currentColor">
<tspan>1</tspan>
</text>
</g>
<g transform="translate(89.1694, 13.1110)">
<rect x="-0.0650" y="0.1461" width="0.1300" height="2.8539" ry="0.0400" fill="currentColor"/>
</g>
<g color="rgb(100.0000%, 100.0000%, 100.0000%)">
<g transform="translate(89.1044, 22.6033)">
<rect x="0.1229" y="-0.6487" width="1.2292" height="1.2974" ry="0.0000" fill="currentColor"/>
</g>
</g>
<g transform="translate(89.2273, 23.2520)">
<text font-family="serif" font-weight="bold" font-size="1.7461" text-anchor="start" fill="currentColor">
<tspan>4</tspan>
</text>
</g>
<g transform="translate(89.1044, 13.1110)">
<path transform="scale(0.0040, -0.0040)" d="M187.183 134.281c-101.52 -10.366 -187.183 -91.0474 -187.183 -170.141c0 -6.9305 0.65771 -13.8488 2.02009 -20.7065c9.91611 -49.7954 56.5823 -77.9434 113.55 -77.9434c30.93 0 64.896 8.298 97.666 25.933c67.899 36.5685 102.496 94.7147 102.496 145.048
c0 47.0724 -30.26 87.3105 -91.838 96.6735c-4.928 0.774 -19.404 1.366 -29.043 1.366c-3.332 0 -6.086 -0.071 -7.668 -0.229z" fill="currentColor"/>
</g>
<g transform="translate(72.3500, 13.1110)">
<rect x="-0.0650" y="-0.8100" width="0.1300" height="3.1639" ry="0.0400" fill="currentColor"/>
</g>
<g color="rgb(100.0000%, 100.0000%, 100.0000%)">
<g transform="translate(71.1521, 24.1033)">
<rect x="0.1229" y="-0.6487" width="1.2292" height="1.2974" ry="0.0000" fill="currentColor"/>
</g>
</g>
<g transform="translate(71.2750, 24.7520)">
<text font-family="serif" font-weight="bold" font-size="1.7461" text-anchor="start" fill="currentColor">
<tspan>1</tspan>
</text>
</g>
<g transform="translate(71.1521, 15.6110)">
<path transform="scale(0.0040, -0.0040)" d="M187.183 134.281c-101.52 -10.366 -187.183 -91.0474 -187.183 -170.141c0 -6.9305 0.65771 -13.8488 2.02009 -20.7065c9.91611 -49.7954 56.5823 -77.9434 113.55 -77.9434c30.93 0 64.896 8.298 97.666 25.933c67.899 36.5685 102.496 94.7147 102.496 145.048
c0 47.0724 -30.26 87.3105 -91.838 96.6735c-4.928 0.774 -19.404 1.366 -29.043 1.366c-3.332 0 -6.086 -0.071 -7.668 -0.229z" fill="currentColor"/>
</g>
<g transform="translate(74.4266, 15.6110)">
<path transform="scale(0.0040, -0.0040)" d="M187.183 134.281c-101.52 -10.366 -187.183 -91.0474 -187.183 -170.141c0 -6.9305 0.65771 -13.8488 2.02009 -20.7065c9.91611 -49.7954 56.5823 -77.9434 113.55 -77.9434c30.93 0 64.896 8.298 97.666 25.933c67.899 36.5685 102.496 94.7147 102.496 145.048
c0 47.0724 -30.26 87.3105 -91.838 96.6735c-4.928 0.774 -19.404 1.366 -29.043 1.366c-3.332 0 -6.086 -0.071 -7.668 -0.229z" fill="currentColor"/>
</g>
<g transform="translate(69.0755, 13.1110)">
<rect x="-0.0650" y="-0.8100" width="0.1300" height="3.1639" ry="0.0400" fill="currentColor"/>
</g>
<g color="rgb(100.0000%, 100.0000%, 100.0000%)">
<g transform="translate(67.8775, 24.1033)">
<rect x="0.1229" y="-0.6487" width="1.2292" height="1.2974" ry="0.0000" fill="currentColor"/>
</g>
</g>
<g transform="translate(68.0005, 24.7520)">
<text font-family="serif" font-weight="bold" font-size="1.7461" text-anchor="start" fill="currentColor">
<tspan>1</tspan>
</text>
</g>
<g transform="translate(77.7011, 15.6110)">
<path transform="scale(0.0040, -0.0040)" d="M187.183 134.281c-101.52 -10.366 -187.183 -91.0474 -187.183 -170.141c0 -6.9305 0.65771 -13.8488 2.02009 -20.7065c9.91611 -49.7954 56.5823 -77.9434 113.55 -77.9434c30.93 0 64.896 8.298 97.666 25.933c67.899 36.5685 102.496 94.7147 102.496 145.048
c0 47.0724 -30.26 87.3105 -91.838 96.6735c-4.928 0.774 -19.404 1.366 -29.043 1.366c-3.332 0 -6.086 -0.071 -7.668 -0.229z" fill="currentColor"/>
</g>
<g transform="translate(78.8991, 13.1110)">
<rect x="-0.0650" y="-0.8100" width="0.1300" height="3.1639" ry="0.0400" fill="currentColor"/>
</g>
<g color="rgb(100.0000%, 100.0000%, 100.0000%)">
<g transform="translate(77.7011, 24.1033)">
<rect x="0.1229" y="-0.6487" width="1.2292" height="1.2974" ry="0.0000" fill="currentColor"/>
</g>
</g>
<g transform="translate(77.8241, 24.7520)">
<text font-family="serif" font-weight="bold" font-size="1.7461" text-anchor="start" fill="currentColor">
<tspan>1</tspan>
</text>
</g>
<g transform="translate(80.9757, 15.6110)">
<path transform="scale(0.0040, -0.0040)" d="M187.183 134.281c-101.52 -10.366 -187.183 -91.0474 -187.183 -170.141c0 -6.9305 0.65771 -13.8488 2.02009 -20.7065c9.91611 -49.7954 56.5823 -77.9434 113.55 -77.9434c30.93 0 64.896 8.298 97.666 25.933c67.899 36.5685 102.496 94.7147 102.496 145.048
c0 47.0724 -30.26 87.3105 -91.838 96.6735c-4.928 0.774 -19.404 1.366 -29.043 1.366c-3.332 0 -6.086 -0.071 -7.668 -0.229z" fill="currentColor"/>
</g>
<g transform="translate(75.6245, 13.1110)">
<rect x="-0.0650" y="-0.8100" width="0.1300" height="3.1639" ry="0.0400" fill="currentColor"/>
</g>
<g color="rgb(100.0000%, 100.0000%, 100.0000%)">
<g transform="translate(74.4266, 24.1033)">
<rect x="0.1229" y="-0.6487" width="1.2292" height="1.2974" ry="0.0000" fill="currentColor"/>
</g>
</g>
<g transform="translate(74.5495, 24.7520)">
<text font-family="serif" font-weight="bold" font-size="1.7461" text-anchor="start" fill="currentColor">
<tspan>1</tspan>
</text>
</g>
<g transform="translate(108.8165, 13.1110)">
<rect x="-0.0650" y="0.1461" width="0.1300" height="2.8539" ry="0.0400" fill="currentColor"/>
</g>
<g color="rgb(100.0000%, 100.0000%, 100.0000%)">
<g transform="translate(108.7515, 22.6033)">
<rect x="0.1229" y="-0.6487" width="1.2292" height="1.2974" ry="0.0000" fill="currentColor"/>
</g>
</g>
<g transform="translate(108.8745, 23.2520)">
<text font-family="serif" font-weight="bold" font-size="1.7461" text-anchor="start" fill="currentColor">
<tspan>4</tspan>
</text>
</g>
<g transform="translate(108.7515, 13.1110)">
<path transform="scale(0.0040, -0.0040)" d="M187.183 134.281c-101.52 -10.366 -187.183 -91.0474 -187.183 -170.141c0 -6.9305 0.65771 -13.8488 2.02009 -20.7065c9.91611 -49.7954 56.5823 -77.9434 113.55 -77.9434c30.93 0 64.896 8.298 97.666 25.933c67.899 36.5685 102.496 94.7147 102.496 145.048
c0 47.0724 -30.26 87.3105 -91.838 96.6735c-4.928 0.774 -19.404 1.366 -29.043 1.366c-3.332 0 -6.086 -0.071 -7.668 -0.229z" fill="currentColor"/>
</g>
<g transform="translate(105.5420, 13.1110)">
<rect x="-0.0650" y="0.1461" width="0.1300" height="2.8539" ry="0.0400" fill="currentColor"/>
</g>
<g color="rgb(100.0000%, 100.0000%, 100.0000%)">
<g transform="translate(105.4770, 22.6033)">
<rect x="0.1229" y="-0.6487" width="1.2292" height="1.2974" ry="0.0000" fill="currentColor"/>
</g>
</g>
<g transform="translate(105.5999, 23.2520)">
<text font-family="serif" font-weight="bold" font-size="1.7461" text-anchor="start" fill="currentColor">
<tspan>4</tspan>
</text>
</g>
<g transform="translate(105.4770, 13.1110)">
<path transform="scale(0.0040, -0.0040)" d="M187.183 134.281c-101.52 -10.366 -187.183 -91.0474 -187.183 -170.141c0 -6.9305 0.65771 -13.8488 2.02009 -20.7065c9.91611 -49.7954 56.5823 -77.9434 113.55 -77.9434c30.93 0 64.896 8.298 97.666 25.933c67.899 36.5685 102.496 94.7147 102.496 145.048
c0 47.0724 -30.26 87.3105 -91.838 96.6735c-4.928 0.774 -19.404 1.366 -29.043 1.366c-3.332 0 -6.086 -0.071 -7.668 -0.229z" fill="currentColor"/>
</g>
<g transform="translate(18.5143, 11.3010)">
<polygon stroke-linejoin="round" stroke-linecap="round" stroke-width="0.0800" fill="currentColor" stroke="currentColor" points="9.9136 -0.2000 9.9136 0.2000 0.0400 0.2000 0.0400 -0.2000"/>
</g>
<g transform="translate(31.6124, 11.3010)">
<polygon stroke-linejoin="round" stroke-linecap="round" stroke-width="0.0800" fill="currentColor" stroke="currentColor" points="9.9136 -0.2000 9.9136 0.2000 0.0400 0.2000 0.0400 -0.2000"/>
</g>
<g transform="translate(50.8712, 13.6110)">
<path transform="scale(0.0040, -0.0040)" d="M40.5715 48.7153c-24.787 -4.4394 -40.5715 -26.1676 -40.5715 -49.0266c0 -9.33609 2.63296 -18.8608 8.36093 -27.4734c9.38157 -14.0427 25.0712 -21.6471 41.0626 -21.6471c9.523 0 19.153 2.6968 27.6216 8.3366c14.0763 9.3842 21.6921 25.0797 21.6921 41.0756
c0 9.51876 -2.6969 19.1439 -8.3342 27.6086c-9.0068 13.5103 -25.3458 21.8428 -41.6654 21.8428c-2.7341 0 -5.4677 -0.2339 -8.1661 -0.7165z" fill="currentColor"/>
</g>
<g transform="translate(49.2975, 12.6110)">
<path transform="scale(0.0040, -0.0040)" d="M40.5715 48.7153c-24.787 -4.4394 -40.5715 -26.1676 -40.5715 -49.0266c0 -9.33609 2.63296 -18.8608 8.36093 -27.4734c9.38157 -14.0427 25.0712 -21.6471 41.0626 -21.6471c9.523 0 19.153 2.6968 27.6216 8.3366c14.0763 9.3842 21.6921 25.0797 21.6921 41.0756
c0 9.51876 -2.6969 19.1439 -8.3342 27.6086c-9.0068 13.5103 -25.3458 21.8428 -41.6654 21.8428c-2.7341 0 -5.4677 -0.2339 -8.1661 -0.7165z" fill="currentColor"/>
</g>
<g transform="translate(48.9424, 14.1110)">
<path stroke-width="0" stroke-linejoin="round" stroke-linecap="round" stroke="currentColor" fill="currentColor" d="M0 0l0.6788 0l2.0000 -2.0000l-0.6788 0z"/>
</g>
<g transform="translate(50.8712, 22.3533)">
<path transform="scale(0.0040, -0.0040)" d="M40.5715 48.7153c-24.787 -4.4394 -40.5715 -26.1676 -40.5715 -49.0266c0 -9.33609 2.63296 -18.8608 8.36093 -27.4734c9.38157 -14.0427 25.0712 -21.6471 41.0626 -21.6471c9.523 0 19.153 2.6968 27.6216 8.3366c14.0763 9.3842 21.6921 25.0797 21.6921 41.0756
c0 9.51876 -2.6969 19.1439 -8.3342 27.6086c-9.0068 13.5103 -25.3458 21.8428 -41.6654 21.8428c-2.7341 0 -5.4677 -0.2339 -8.1661 -0.7165z" fill="currentColor"/>
</g>
<g transform="translate(49.2975, 21.3533)">
<path transform="scale(0.0040, -0.0040)" d="M40.5715 48.7153c-24.787 -4.4394 -40.5715 -26.1676 -40.5715 -49.0266c0 -9.33609 2.63296 -18.8608 8.36093 -27.4734c9.38157 -14.0427 25.0712 -21.6471 41.0626 -21.6471c9.523 0 19.153 2.6968 27.6216 8.3366c14.0763 9.3842 21.6921 25.0797 21.6921 41.0756
c0 9.51876 -2.6969 19.1439 -8.3342 27.6086c-9.0068 13.5103 -25.3458 21.8428 -41.6654 21.8428c-2.7341 0 -5.4677 -0.2339 -8.1661 -0.7165z" fill="currentColor"/>
</g>
<g transform="translate(48.9424, 22.8533)">
<path stroke-width="0" stroke-linejoin="round" stroke-linecap="round" stroke="currentColor" fill="currentColor" d="M0 0l0.6788 0l2.0000 -2.0000l-0.6788 0z"/>
</g>
<g transform="translate(59.1869, 12.3010)">
<polygon stroke-linejoin="round" stroke-linecap="round" stroke-width="0.0800" fill="currentColor" stroke="currentColor" points="9.9136 -0.2000 9.9136 0.2000 0.0400 0.2000 0.0400 -0.2000"/>
</g>
<g transform="translate(72.2850, 12.3010)">
<polygon stroke-linejoin="round" stroke-linecap="round" stroke-width="0.0800" fill="currentColor" stroke="currentColor" points="9.9136 -0.2000 9.9136 0.2000 0.0400 0.2000 0.0400 -0.2000"/>
</g>
<g transform="translate(85.8298, 16.1110)">
<polygon stroke-linejoin="round" stroke-linecap="round" stroke-width="0.0800" fill="currentColor" stroke="currentColor" points="9.9136 -0.2000 9.9136 0.2000 0.0400 0.2000 0.0400 -0.2000"/>
</g>
<g transform="translate(98.9280, 16.1110)">
<polygon stroke-linejoin="round" stroke-linecap="round" stroke-width="0.0800" fill="currentColor" stroke="currentColor" points="9.9136 -0.2000 9.9136 0.2000 0.0400 0.2000 0.0400 -0.2000"/>
</g>
<g transform="translate(95.7184, 13.1110)">
<rect x="-0.0650" y="0.1461" width="0.1300" height="2.8539" ry="0.0400" fill="currentColor"/>
</g>
<g color="rgb(100.0000%, 100.0000%, 100.0000%)">
<g transform="translate(95.6534, 22.6033)">
<rect x="0.1229" y="-0.6487" width="1.2292" height="1.2974" ry="0.0000" fill="currentColor"/>
</g>
</g>
<g transform="translate(95.7763, 23.2520)">
<text font-family="serif" font-weight="bold" font-size="1.7461" text-anchor="start" fill="currentColor">
<tspan>4</tspan>
</text>
</g>
<g transform="translate(95.6534, 13.1110)">
<path transform="scale(0.0040, -0.0040)" d="M187.183 134.281c-101.52 -10.366 -187.183 -91.0474 -187.183 -170.141c0 -6.9305 0.65771 -13.8488 2.02009 -20.7065c9.91611 -49.7954 56.5823 -77.9434 113.55 -77.9434c30.93 0 64.896 8.298 97.666 25.933c67.899 36.5685 102.496 94.7147 102.496 145.048
c0 47.0724 -30.26 87.3105 -91.838 96.6735c-4.928 0.774 -19.404 1.366 -29.043 1.366c-3.332 0 -6.086 -0.071 -7.668 -0.229z" fill="currentColor"/>
</g>
<g transform="translate(92.4439, 13.1110)">
<rect x="-0.0650" y="0.1461" width="0.1300" height="2.8539" ry="0.0400" fill="currentColor"/>
</g>
<g color="rgb(100.0000%, 100.0000%, 100.0000%)">
<g transform="translate(92.3789, 22.6033)">
<rect x="0.1229" y="-0.6487" width="1.2292" height="1.2974" ry="0.0000" fill="currentColor"/>
</g>
</g>
<g transform="translate(92.5018, 23.2520)">
<text font-family="serif" font-weight="bold" font-size="1.7461" text-anchor="start" fill="currentColor">
<tspan>4</tspan>
</text>
</g>
<g transform="translate(92.3789, 13.1110)">
<path transform="scale(0.0040, -0.0040)" d="M187.183 134.281c-101.52 -10.366 -187.183 -91.0474 -187.183 -170.141c0 -6.9305 0.65771 -13.8488 2.02009 -20.7065c9.91611 -49.7954 56.5823 -77.9434 113.55 -77.9434c30.93 0 64.896 8.298 97.666 25.933c67.899 36.5685 102.496 94.7147 102.496 145.048
c0 47.0724 -30.26 87.3105 -91.838 96.6735c-4.928 0.774 -19.404 1.366 -29.043 1.366c-3.332 0 -6.086 -0.071 -7.668 -0.229z" fill="currentColor"/>
</g>
<g transform="translate(67.8775, 15.6110)">
<path transform="scale(0.0040, -0.0040)" d="M187.183 134.281c-101.52 -10.366 -187.183 -91.0474 -187.183 -170.141c0 -6.9305 0.65771 -13.8488 2.02009 -20.7065c9.91611 -49.7954 56.5823 -77.9434 113.55 -77.9434c30.93 0 64.896 8.298 97.666 25.933c67.899 36.5685 102.496 94.7147 102.496 145.048
c0 47.0724 -30.26 87.3105 -91.838 96.6735c-4.928 0.774 -19.404 1.366 -29.043 1.366c-3.332 0 -6.086 -0.071 -7.668 -0.229z" fill="currentColor"/>
</g>
<g transform="translate(102.2675, 13.1110)">
<rect x="-0.0650" y="0.1461" width="0.1300" height="2.8539" ry="0.0400" fill="currentColor"/>
</g>
<g color="rgb(100.0000%, 100.0000%, 100.0000%)">
<g transform="translate(102.2025, 22.6033)">
<rect x="0.1229" y="-0.6487" width="1.2292" height="1.2974" ry="0.0000" fill="currentColor"/>
</g>
</g>
<g transform="translate(102.3254, 23.2520)">
<text font-family="serif" font-weight="bold" font-size="1.7461" text-anchor="start" fill="currentColor">
<tspan>4</tspan>
</text>
</g>
<g transform="translate(102.2025, 13.1110)">
<path transform="scale(0.0040, -0.0040)" d="M187.183 134.281c-101.52 -10.366 -187.183 -91.0474 -187.183 -170.141c0 -6.9305 0.65771 -13.8488 2.02009 -20.7065c9.91611 -49.7954 56.5823 -77.9434 113.55 -77.9434c30.93 0 64.896 8.298 97.666 25.933c67.899 36.5685 102.496 94.7147 102.496 145.048
c0 47.0724 -30.26 87.3105 -91.838 96.6735c-4.928 0.774 -19.404 1.366 -29.043 1.366c-3.332 0 -6.086 -0.071 -7.668 -0.229z" fill="currentColor"/>
</g>
<g transform="translate(98.9930, 13.1110)">
<rect x="-0.0650" y="0.1461" width="0.1300" height="2.8539" ry="0.0400" fill="currentColor"/>
</g>
<g color="rgb(100.0000%, 100.0000%, 100.0000%)">
<g transform="translate(98.9280, 22.6033)">
<rect x="0.1229" y="-0.6487" width="1.2292" height="1.2974" ry="0.0000" fill="currentColor"/>
</g>
</g>
<g transform="translate(99.0509, 23.2520)">
<text font-family="serif" font-weight="bold" font-size="1.7461" text-anchor="start" fill="currentColor">
<tspan>4</tspan>
</text>
</g>
<g transform="translate(98.9280, 13.1110)">
<path transform="scale(0.0040, -0.0040)" d="M187.183 134.281c-101.52 -10.366 -187.183 -91.0474 -187.183 -170.141c0 -6.9305 0.65771 -13.8488 2.02009 -20.7065c9.91611 -49.7954 56.5823 -77.9434 113.55 -77.9434c30.93 0 64.896 8.298 97.666 25.933c67.899 36.5685 102.496 94.7147 102.496 145.048
c0 47.0724 -30.26 87.3105 -91.838 96.6735c-4.928 0.774 -19.404 1.366 -29.043 1.366c-3.332 0 -6.086 -0.071 -7.668 -0.229z" fill="currentColor"/>
</g>
<g color="rgb(100.0000%, 100.0000%, 100.0000%)">
<g transform="translate(27.2049, 24.1033)">
<rect x="0.1229" y="-0.6487" width="1.2292" height="1.2974" ry="0.0000" fill="currentColor"/>
</g>
</g>
<g transform="translate(27.3278, 24.7520)">
<text font-family="serif" font-weight="bold" font-size="1.7461" text-anchor="start" fill="currentColor">
<tspan>4</tspan>
</text>
</g>
<g color="rgb(100.0000%, 100.0000%, 100.0000%)">
<g transform="translate(30.4794, 24.1033)">
<rect x="0.1229" y="-0.6487" width="1.2292" height="1.2974" ry="0.0000" fill="currentColor"/>
</g>
</g>
<g transform="translate(30.6024, 24.7520)">
<text font-family="serif" font-weight="bold" font-size="1.7461" text-anchor="start" fill="currentColor">
<tspan>4</tspan>
</text>
</g>
<g transform="translate(30.4794, 14.6110)">
<path transform="scale(0.0040, -0.0040)" d="M187.183 134.281c-101.52 -10.366 -187.183 -91.0474 -187.183 -170.141c0 -6.9305 0.65771 -13.8488 2.02009 -20.7065c9.91611 -49.7954 56.5823 -77.9434 113.55 -77.9434c30.93 0 64.896 8.298 97.666 25.933c67.899 36.5685 102.496 94.7147 102.496 145.048
c0 47.0724 -30.26 87.3105 -91.838 96.6735c-4.928 0.774 -19.404 1.366 -29.043 1.366c-3.332 0 -6.086 -0.071 -7.668 -0.229z" fill="currentColor"/>
</g>
<g transform="translate(28.4028, 13.1110)">
<rect x="-0.0650" y="-1.8100" width="0.1300" height="3.1639" ry="0.0400" fill="currentColor"/>
</g>
<g transform="translate(31.6774, 13.1110)">
<rect x="-0.0650" y="-1.8100" width="0.1300" height="3.1639" ry="0.0400" fill="currentColor"/>
</g>
<g transform="translate(27.2049, 14.6110)">
<path transform="scale(0.0040, -0.0040)" d="M187.183 134.281c-101.52 -10.366 -187.183 -91.0474 -187.183 -170.141c0 -6.9305 0.65771 -13.8488 2.02009 -20.7065c9.91611 -49.7954 56.5823 -77.9434 113.55 -77.9434c30.93 0 64.896 8.298 97.666 25.933c67.899 36.5685 102.496 94.7147 102.496 145.048
c0 47.0724 -30.26 87.3105 -91.838 96.6735c-4.928 0.774 -19.404 1.366 -29.043 1.366c-3.332 0 -6.086 -0.071 -7.668 -0.229z" fill="currentColor"/>
</g>
<g transform="translate(25.1283, 13.1110)">
<rect x="-0.0650" y="-1.8100" width="0.1300" height="3.1639" ry="0.0400" fill="currentColor"/>
</g>
<g transform="translate(34.9519, 13.1110)">
<rect x="-0.0650" y="-1.8100" width="0.1300" height="3.1639" ry="0.0400" fill="currentColor"/>
</g>
<g transform="translate(38.2264, 13.1110)">
<rect x="-0.0650" y="-1.8100" width="0.1300" height="3.1639" ry="0.0400" fill="currentColor"/>
</g>
<g color="rgb(100.0000%, 100.0000%, 100.0000%)">
<g transform="translate(37.0285, 24.1033)">
<rect x="0.1229" y="-0.6487" width="1.2292" height="1.2974" ry="0.0000" fill="currentColor"/>
</g>
</g>
<g transform="translate(37.1514, 24.7520)">
<text font-family="serif" font-weight="bold" font-size="1.7461" text-anchor="start" fill="currentColor">
<tspan>4</tspan>
</text>
</g>
<g transform="translate(37.0285, 14.6110)">
<path transform="scale(0.0040, -0.0040)" d="M187.183 134.281c-101.52 -10.366 -187.183 -91.0474 -187.183 -170.141c0 -6.9305 0.65771 -13.8488 2.02009 -20.7065c9.91611 -49.7954 56.5823 -77.9434 113.55 -77.9434c30.93 0 64.896 8.298 97.666 25.933c67.899 36.5685 102.496 94.7147 102.496 145.048
c0 47.0724 -30.26 87.3105 -91.838 96.6735c-4.928 0.774 -19.404 1.366 -29.043 1.366c-3.332 0 -6.086 -0.071 -7.668 -0.229z" fill="currentColor"/>
</g>
<g color="rgb(100.0000%, 100.0000%, 100.0000%)">
<g transform="translate(23.9304, 24.1033)">
<rect x="0.1229" y="-0.6487" width="1.2292" height="1.2974" ry="0.0000" fill="currentColor"/>
</g>
</g>
<g transform="translate(24.0533, 24.7520)">
<text font-family="serif" font-weight="bold" font-size="1.7461" text-anchor="start" fill="currentColor">
<tspan>4</tspan>
</text>
</g>
<g color="rgb(100.0000%, 100.0000%, 100.0000%)">
<g transform="translate(33.7540, 24.1033)">
<rect x="0.1229" y="-0.6487" width="1.2292" height="1.2974" ry="0.0000" fill="currentColor"/>
</g>
</g>
<g transform="translate(33.8769, 24.7520)">
<text font-family="serif" font-weight="bold" font-size="1.7461" text-anchor="start" fill="currentColor">
<tspan>4</tspan>
</text>
</g>
<g transform="translate(33.7540, 14.6110)">
<path transform="scale(0.0040, -0.0040)" d="M187.183 134.281c-101.52 -10.366 -187.183 -91.0474 -187.183 -170.141c0 -6.9305 0.65771 -13.8488 2.02009 -20.7065c9.91611 -49.7954 56.5823 -77.9434 113.55 -77.9434c30.93 0 64.896 8.298 97.666 25.933c67.899 36.5685 102.496 94.7147 102.496 145.048
c0 47.0724 -30.26 87.3105 -91.838 96.6735c-4.928 0.774 -19.404 1.366 -29.043 1.366c-3.332 0 -6.086 -0.071 -7.668 -0.229z" fill="currentColor"/>
</g>
<g transform="translate(6.4906, 12.1110)">
<path transform="scale(0.0040, -0.0040)" d="M226.042 252.9c-123.063 -7.437 -219.979 -94.453 -220.121 -197.716c-0.00003 -0.0391 -0.00004 -0.0782 -0.00004 -0.1173c0 -65.1703 39.4445 -116.272 95.921 -124.083c4.893 -0.6763 9.724 -1.0034 14.472 -1.0034c55.658 0 99.961 44.9459 99.961 99.3253
c0 7.2699 -0.792 14.7085 -2.454 22.2307c-10.432 47.2323 -52.698 77.2312 -96.671 77.2312c-17.3259 0 -34.9164 -4.657 -50.9289 -14.752c-2.1791 -1.379 -3.9406 -2.382 -4.148 -2.382c-0.0135 0 -0.0205 0.005 -0.0205 0.013c0 0.664 5.0685 12.221 7.3895 16.816
c31.9519 63.675 102.483 101.791 170.539 101.791c30.212 0 59.937 -7.512 85.582 -23.633c60.659 -38.166 93.438 -113.991 93.438 -213.607c0 -13.8799 -0.636 -28.2217 -1.922 -42.9877c-17.763 -203.068 -171.947 -383.779 -400.216 -468.994
c-15.0632 -5.637 -16.8632 -7.153 -16.8632 -14.4c0 -6.821 4.54737 -11.369 11.3684 -11.369c10.1842 0 65.179 14.211 100.185 25.863c235.61 78.49 409.358 271.942 433.894 483.206c1.364 11.7277 2.043 23.2156 2.043 34.4496
c0 78.9248 -33.501 145.315 -98.437 194.245c-50.08 37.765 -126.923 60.513 -201.55 60.513c-7.183 0 -14.345 -0.211 -21.461 -0.639zM616.737 156.032c-20.52 -4.064 -31.184 -20.884 -31.184 -37.723c0 -15.152 8.635 -30.3189 26.494 -36.2195
c2.961 -0.9711 7.141 -1.4566 11.321 -1.4566c4.181 0 8.361 0.4855 11.321 1.4566c17.699 5.8439 26.568 21.1355 26.568 36.4105c0 15.183 -8.763 30.349 -26.331 36.205c-2.752 0.918 -9.527 1.572 -14.272 1.572c-1.625 0 -3.011 -0.076 -3.917 -0.245z
M616.737 -80.8105c-20.52 -4.064 -31.184 -20.8845 -31.184 -37.7225c0 -15.152 8.635 -30.319 26.494 -36.22c2.961 -0.971 7.141 -1.456 11.321 -1.456c4.181 0 8.361 0.485 11.321 1.456c17.699 5.844 26.568 21.136 26.568 36.411
c0 15.183 -8.763 30.3492 -26.331 36.2052c-2.752 0.9175 -9.527 1.5721 -14.272 1.5721c-1.625 0 -3.011 -0.0767 -3.917 -0.2458z" fill="currentColor"/>
</g>
<g transform="translate(17.3813, 14.6110)">
<path transform="scale(0.0040, -0.0040)" d="M187.183 134.281c-101.52 -10.366 -187.183 -91.0474 -187.183 -170.141c0 -6.9305 0.65771 -13.8488 2.02009 -20.7065c9.91611 -49.7954 56.5823 -77.9434 113.55 -77.9434c30.93 0 64.896 8.298 97.666 25.933c67.899 36.5685 102.496 94.7147 102.496 145.048
c0 47.0724 -30.26 87.3105 -91.838 96.6735c-4.928 0.774 -19.404 1.366 -29.043 1.366c-3.332 0 -6.086 -0.071 -7.668 -0.229z" fill="currentColor"/>
</g>
<g transform="translate(17.3813, 10.1624)">
<text font-family="sans-serif" font-size="2.6163" text-anchor="start" fill="currentColor">
<tspan>A</tspan>
</text>
</g>
<g transform="translate(19.3157, 9.8624)">
<path transform="scale(0.0042, -0.0042)" d="M-5.96842 455.637c-3.31579 -1.279 -6.96318 -4.974 -8.24208 -8.337l-0.9474 -2.558v-298.847v-298.848l0.9474 -2.558c2.1316 -5.636 7.72103 -9.331 14.2105 -9.331c5.92105 0 7.24737 0.805 17.6211 10.563c17.9052 16.816 25.2473 23.495 56.5105 51.49
c57.8364 51.7732 78.7264 74.6522 94.4524 103.405c11.26 20.5251 16.622 41.6074 16.622 61.0665c0 35.5534 -17.901 65.6887 -50.443 77.1067c-10.801 3.785 -21.893 5.659 -33.116 5.659c-28.2506 0 -57.3312 -11.873 -84.6891 -35.027l-1.8 -1.468v168.394
c0 168.064 0 168.395 -0.9474 170.953c-2.1403 5.768 -8.19819 9.397 -14.4711 9.397c-1.91777 0 -3.85565 -0.339 -5.70783 -1.06zM82.4211 95.4474c12.0789 -2.7 20.9839 -10.9421 22.9739 -21.2211c0.784 -4.1014 1.167 -8.4966 1.167 -13.1483
c0 -44.2367 -34.6605 -111.671 -88.7515 -170.262l-2.6052 -2.842l-0.0474 85.2155v85.2158l3.5053 5.2579c12.3157 18.521 29.2263 29.9368 48.3631 32.6842c0.7115 0.1049 1.7962 0.1525 3.0789 0.1525c3.927 0 9.7094 -0.4455 12.3159 -1.0525z" fill="currentColor"/>
</g>
<g transform="translate(20.1006, 8.9732)">
<text font-family="sans-serif" font-size="1.8500" text-anchor="start" fill="currentColor">
<tspan>9</tspan>
</text>
</g>
<g transform="translate(6.5759, 21.1363)">
<text font-family="sans-serif" font-weight="bold" font-size="1.9600" text-anchor="start" fill="currentColor">
<tspan>T</tspan>
</text>
</g>
<g transform="translate(6.4906, 22.5703)">
<text font-family="sans-serif" font-weight="bold" font-size="1.9600" text-anchor="start" fill="currentColor">
<tspan>A</tspan>
</text>
</g>
<g transform="translate(6.4906, 24.0044)">
<text font-family="sans-serif" font-weight="bold" font-size="1.9600" text-anchor="start" fill="currentColor">
<tspan>B</tspan>
</text>
</g>
<g transform="translate(10.0512, 14.1110)">
<path transform="scale(0.0040, -0.0040)" d="M-5.96842 455.637c-3.31579 -1.279 -6.96318 -4.974 -8.24208 -8.337l-0.9474 -2.558v-298.847v-298.848l0.9474 -2.558c2.1316 -5.636 7.72103 -9.331 14.2105 -9.331c5.92105 0 7.24737 0.805 17.6211 10.563c17.9052 16.816 25.2473 23.495 56.5105 51.49
c57.8364 51.7732 78.7264 74.6522 94.4524 103.405c11.26 20.5251 16.622 41.6074 16.622 61.0665c0 35.5534 -17.901 65.6887 -50.443 77.1067c-10.801 3.785 -21.893 5.659 -33.116 5.659c-28.2506 0 -57.3312 -11.873 -84.6891 -35.027l-1.8 -1.468v168.394
c0 168.064 0 168.395 -0.9474 170.953c-2.1403 5.768 -8.19819 9.397 -14.4711 9.397c-1.91777 0 -3.85565 -0.339 -5.70783 -1.06zM82.4211 95.4474c12.0789 -2.7 20.9839 -10.9421 22.9739 -21.2211c0.784 -4.1014 1.167 -8.4966 1.167 -13.1483
c0 -44.2367 -34.6605 -111.671 -88.7515 -170.262l-2.6052 -2.842l-0.0474 85.2155v85.2158l3.5053 5.2579c12.3157 18.521 29.2263 29.9368 48.3631 32.6842c0.7115 0.1049 1.7962 0.1525 3.0789 0.1525c3.927 0 9.7094 -0.4455 12.3159 -1.0525z" fill="currentColor"/>
</g>
<g transform="translate(10.8526, 12.6110)">
<path transform="scale(0.0040, -0.0040)" d="M-5.96842 455.637c-3.31579 -1.279 -6.96318 -4.974 -8.24208 -8.337l-0.9474 -2.558v-298.847v-298.848l0.9474 -2.558c2.1316 -5.636 7.72103 -9.331 14.2105 -9.331c5.92105 0 7.24737 0.805 17.6211 10.563c17.9052 16.816 25.2473 23.495 56.5105 51.49
c57.8364 51.7732 78.7264 74.6522 94.4524 103.405c11.26 20.5251 16.622 41.6074 16.622 61.0665c0 35.5534 -17.901 65.6887 -50.443 77.1067c-10.801 3.785 -21.893 5.659 -33.116 5.659c-28.2506 0 -57.3312 -11.873 -84.6891 -35.027l-1.8 -1.468v168.394
c0 168.064 0 168.395 -0.9474 170.953c-2.1403 5.768 -8.19819 9.397 -14.4711 9.397c-1.91777 0 -3.85565 -0.339 -5.70783 -1.06zM82.4211 95.4474c12.0789 -2.7 20.9839 -10.9421 22.9739 -21.2211c0.784 -4.1014 1.167 -8.4966 1.167 -13.1483
c0 -44.2367 -34.6605 -111.671 -88.7515 -170.262l-2.6052 -2.842l-0.0474 85.2155v85.2158l3.5053 5.2579c12.3157 18.521 29.2263 29.9368 48.3631 32.6842c0.7115 0.1049 1.7962 0.1525 3.0789 0.1525c3.927 0 9.7094 -0.4455 12.3159 -1.0525z" fill="currentColor"/>
</g>
<g transform="translate(11.6541, 14.6110)">
<path transform="scale(0.0040, -0.0040)" d="M-5.96842 455.637c-3.31579 -1.279 -6.96318 -4.974 -8.24208 -8.337l-0.9474 -2.558v-298.847v-298.848l0.9474 -2.558c2.1316 -5.636 7.72103 -9.331 14.2105 -9.331c5.92105 0 7.24737 0.805 17.6211 10.563c17.9052 16.816 25.2473 23.495 56.5105 51.49
c57.8364 51.7732 78.7264 74.6522 94.4524 103.405c11.26 20.5251 16.622 41.6074 16.622 61.0665c0 35.5534 -17.901 65.6887 -50.443 77.1067c-10.801 3.785 -21.893 5.659 -33.116 5.659c-28.2506 0 -57.3312 -11.873 -84.6891 -35.027l-1.8 -1.468v168.394
c0 168.064 0 168.395 -0.9474 170.953c-2.1403 5.768 -8.19819 9.397 -14.4711 9.397c-1.91777 0 -3.85565 -0.339 -5.70783 -1.06zM82.4211 95.4474c12.0789 -2.7 20.9839 -10.9421 22.9739 -21.2211c0.784 -4.1014 1.167 -8.4966 1.167 -13.1483
c0 -44.2367 -34.6605 -111.671 -88.7515 -170.262l-2.6052 -2.842l-0.0474 85.2155v85.2158l3.5053 5.2579c12.3157 18.521 29.2263 29.9368 48.3631 32.6842c0.7115 0.1049 1.7962 0.1525 3.0789 0.1525c3.927 0 9.7094 -0.4455 12.3159 -1.0525z" fill="currentColor"/>
</g>
<g transform="translate(12.4556, 13.1110)">
<path transform="scale(0.0040, -0.0040)" d="M-5.96842 455.637c-3.31579 -1.279 -6.96318 -4.974 -8.24208 -8.337l-0.9474 -2.558v-298.847v-298.848l0.9474 -2.558c2.1316 -5.636 7.72103 -9.331 14.2105 -9.331c5.92105 0 7.24737 0.805 17.6211 10.563c17.9052 16.816 25.2473 23.495 56.5105 51.49
c57.8364 51.7732 78.7264 74.6522 94.4524 103.405c11.26 20.5251 16.622 41.6074 16.622 61.0665c0 35.5534 -17.901 65.6887 -50.443 77.1067c-10.801 3.785 -21.893 5.659 -33.116 5.659c-28.2506 0 -57.3312 -11.873 -84.6891 -35.027l-1.8 -1.468v168.394
c0 168.064 0 168.395 -0.9474 170.953c-2.1403 5.768 -8.19819 9.397 -14.4711 9.397c-1.91777 0 -3.85565 -0.339 -5.70783 -1.06zM82.4211 95.4474c12.0789 -2.7 20.9839 -10.9421 22.9739 -21.2211c0.784 -4.1014 1.167 -8.4966 1.167 -13.1483
c0 -44.2367 -34.6605 -111.671 -88.7515 -170.262l-2.6052 -2.842l-0.0474 85.2155v85.2158l3.5053 5.2579c12.3157 18.521 29.2263 29.9368 48.3631 32.6842c0.7115 0.1049 1.7962 0.1525 3.0789 0.1525c3.927 0 9.7094 -0.4455 12.3159 -1.0525z" fill="currentColor"/>
</g>
<g transform="translate(6.9724, 16.3731)">
<text font-family="serif" font-style="italic" font-size="1.3860" text-anchor="start" fill="currentColor">
<tspan>8</tspan>
</text>
</g>
<g color="rgb(100.0000%, 100.0000%, 100.0000%)">
<g transform="translate(17.3813, 24.1033)">
<rect x="0.1229" y="-0.6487" width="1.2292" height="1.2974" ry="0.0000" fill="currentColor"/>
</g>
</g>
<g transform="translate(17.5042, 24.7520)">
<text font-family="serif" font-weight="bold" font-size="1.7461" text-anchor="start" fill="currentColor">
<tspan>4</tspan>
</text>
</g>
<g transform="translate(3.4371, 10.0268)">
<text font-family="serif" font-size="1.7461" text-anchor="start" fill="currentColor">
<tspan>67</tspan>
</text>
</g>
<g transform="translate(8.3753, 8.2969)">
<rect x="-0.7300" y="-2.7786" width="7.1960" height="3.5427" ry="0.5000" fill="currentColor"/>
</g>
<g color="rgb(100%, 100%, 100%)">
<g transform="translate(8.3753, 8.2969)">
<rect x="-0.6300" y="-2.6786" width="6.9960" height="3.3427" ry="0.4500" fill="currentColor"/>
</g>
</g>
<g transform="translate(8.3753, 8.2969)">
<text font-family="serif" font-weight="bold" font-size="2.7719" text-anchor="start" fill="currentColor">
<tspan>Out</tspan>
</text>
</g>
<g transform="translate(5.6306, 17.6071)">
<rect x="0.0000" y="-6.5462" width="0.1600" height="13.0924" ry="0.0500" fill="currentColor"/>
</g>
<g transform="translate(4.3806, 10.6896)">
<path transform="scale(0.0040, -0.0040)" d="M394.946 143.479c-120.316 -85.5948 -249.726 -132.3 -374.921 -135.379c-16.1526 -0.37895 -16.6737 -0.52105 -18.8526 -4.02632c-0.781581 -1.23157 -1.17237 -23.9684 -1.17237 -46.7053c0 -22.7368 0.390789 -45.4737 1.17237 -46.7052
c1.98947 -3.2211 2.98421 -3.5053 13.2631 -3.5053c46.5632 0 102.41 13.3579 154.847 37.0421c28.563 12.8842 66.505 34.6737 89.1 51.1105c0.9 0.66315 5.021 3.64736 9.189 6.58421c44.29 31.5948 91.516 75.2685 134.195 123.963c7.263 8.319 9.924 11.83 9.924 14.701
c0 1.248 -0.503 2.376 -1.35 3.725c-1.511 2.458 -3.248 3.692 -5.521 3.692c-2.502 0 -5.655 -1.494 -9.874 -4.497z" fill="currentColor"/>
</g>
<g transform="translate(4.3806, 24.5249)">
<path transform="scale(0.0040, -0.0040)" d="M3.46284 91.8474c-3.24864 -2.0561 -3.46284 0.5644 -3.46284 -31.8699c0 -4.9267 0.00494219 -10.6623 0.00494219 -17.3459c0 -44.6684 0 -45.1421 0.994737 -46.7053c2.17895 -3.50527 2.7 -3.64737 18.8526 -4.02632
c125.195 -3.0789 254.606 -49.7842 374.921 -135.379c4.219 -3.003 7.372 -4.497 9.874 -4.497c2.274 0 4.01 1.234 5.521 3.692c0.84 1.338 1.337 2.466 1.337 3.715c0 2.908 -2.697 6.47 -10.053 14.853c-39.173 44.7634 -82.373 85.3107 -123.394 116.005
c-3.79 2.79474 -7.627 5.68421 -8.527 6.39474c-4.358 3.31579 -24.11 16.7684 -32.21 21.9316c-64.611 41.2105 -129.837 65.6053 -193.737 72.521c-10.7756 1.1613 -21.4587 1.7683 -29.135 1.7683c-5.78774 0 -9.86615 -0.3451 -10.9861 -1.0577z" fill="currentColor"/>
</g>
<g transform="translate(4.3806, 17.6071)">
<rect x="0.0000" y="-6.5912" width="0.4500" height="13.1824" ry="0.0000" fill="currentColor"/>
</g>
<g color="rgb(100.0000%, 100.0000%, 100.0000%)">
<g transform="translate(20.6559, 24.1033)">
<rect x="0.1229" y="-0.6487" width="1.2292" height="1.2974" ry="0.0000" fill="currentColor"/>
</g>
</g>
<g transform="translate(20.7788, 24.7520)">
<text font-family="serif" font-weight="bold" font-size="1.7461" text-anchor="start" fill="currentColor">
<tspan>4</tspan>
</text>
</g>
<g transform="translate(23.9304, 14.6110)">
<path transform="scale(0.0040, -0.0040)" d="M187.183 134.281c-101.52 -10.366 -187.183 -91.0474 -187.183 -170.141c0 -6.9305 0.65771 -13.8488 2.02009 -20.7065c9.91611 -49.7954 56.5823 -77.9434 113.55 -77.9434c30.93 0 64.896 8.298 97.666 25.933c67.899 36.5685 102.496 94.7147 102.496 145.048
c0 47.0724 -30.26 87.3105 -91.838 96.6735c-4.928 0.774 -19.404 1.366 -29.043 1.366c-3.332 0 -6.086 -0.071 -7.668 -0.229z" fill="currentColor"/>
</g>
<g transform="translate(21.8538, 13.1110)">
<rect x="-0.0650" y="-1.8100" width="0.1300" height="3.1639" ry="0.0400" fill="currentColor"/>
</g>
<g transform="translate(20.6559, 14.6110)">
<path transform="scale(0.0040, -0.0040)" d="M187.183 134.281c-101.52 -10.366 -187.183 -91.0474 -187.183 -170.141c0 -6.9305 0.65771 -13.8488 2.02009 -20.7065c9.91611 -49.7954 56.5823 -77.9434 113.55 -77.9434c30.93 0 64.896 8.298 97.666 25.933c67.899 36.5685 102.496 94.7147 102.496 145.048
c0 47.0724 -30.26 87.3105 -91.838 96.6735c-4.928 0.774 -19.404 1.366 -29.043 1.366c-3.332 0 -6.086 -0.071 -7.668 -0.229z" fill="currentColor"/>
</g>
<g transform="translate(18.5793, 13.1110)">
<rect x="-0.0650" y="-1.8100" width="0.1300" height="3.1639" ry="0.0400" fill="currentColor"/>
</g>
<g transform="translate(59.2519, 13.1110)">
<rect x="-0.0650" y="-0.8100" width="0.1300" height="3.1639" ry="0.0400" fill="currentColor"/>
</g>
<g color="rgb(100.0000%, 100.0000%, 100.0000%)">
<g transform="translate(58.0540, 24.1033)">
<rect x="0.1229" y="-0.6487" width="1.2292" height="1.2974" ry="0.0000" fill="currentColor"/>
</g>
</g>
<g transform="translate(58.1769, 24.7520)">
<text font-family="serif" font-weight="bold" font-size="1.7461" text-anchor="start" fill="currentColor">
<tspan>1</tspan>
</text>
</g>
<g transform="translate(58.0540, 15.6110)">
<path transform="scale(0.0040, -0.0040)" d="M187.183 134.281c-101.52 -10.366 -187.183 -91.0474 -187.183 -170.141c0 -6.9305 0.65771 -13.8488 2.02009 -20.7065c9.91611 -49.7954 56.5823 -77.9434 113.55 -77.9434c30.93 0 64.896 8.298 97.666 25.933c67.899 36.5685 102.496 94.7147 102.496 145.048
c0 47.0724 -30.26 87.3105 -91.838 96.6735c-4.928 0.774 -19.404 1.366 -29.043 1.366c-3.332 0 -6.086 -0.071 -7.668 -0.229z" fill="currentColor"/>
</g>
<g transform="translate(65.8009, 13.1110)">
<rect x="-0.0650" y="-0.8100" width="0.1300" height="3.1639" ry="0.0400" fill="currentColor"/>
</g>
<g color="rgb(100.0000%, 100.0000%, 100.0000%)">
<g transform="translate(64.6030, 24.1033)">
<rect x="0.1229" y="-0.6487" width="1.2292" height="1.2974" ry="0.0000" fill="currentColor"/>
</g>
</g>
<g transform="translate(64.7259, 24.7520)">
<text font-family="serif" font-weight="bold" font-size="1.7461" text-anchor="start" fill="currentColor">
<tspan>1</tspan>
</text>
</g>
<g transform="translate(64.6030, 15.6110)">
<path transform="scale(0.0040, -0.0040)" d="M187.183 134.281c-101.52 -10.366 -187.183 -91.0474 -187.183 -170.141c0 -6.9305 0.65771 -13.8488 2.02009 -20.7065c9.91611 -49.7954 56.5823 -77.9434 113.55 -77.9434c30.93 0 64.896 8.298 97.666 25.933c67.899 36.5685 102.496 94.7147 102.496 145.048
c0 47.0724 -30.26 87.3105 -91.838 96.6735c-4.928 0.774 -19.404 1.366 -29.043 1.366c-3.332 0 -6.086 -0.071 -7.668 -0.229z" fill="currentColor"/>
</g>
<g transform="translate(62.5264, 13.1110)">
<rect x="-0.0650" y="-0.8100" width="0.1300" height="3.1639" ry="0.0400" fill="currentColor"/>
</g>
<g color="rgb(100.0000%, 100.0000%, 100.0000%)">
<g transform="translate(61.3285, 24.1033)">
<rect x="0.1229" y="-0.6487" width="1.2292" height="1.2974" ry="0.0000" fill="currentColor"/>
</g>
</g>
<g transform="translate(61.4514, 24.7520)">
<text font-family="serif" font-weight="bold" font-size="1.7461" text-anchor="start" fill="currentColor">
<tspan>1</tspan>
</text>
</g>
<g transform="translate(61.3285, 15.6110)">
<path transform="scale(0.0040, -0.0040)" d="M187.183 134.281c-101.52 -10.366 -187.183 -91.0474 -187.183 -170.141c0 -6.9305 0.65771 -13.8488 2.02009 -20.7065c9.91611 -49.7954 56.5823 -77.9434 113.55 -77.9434c30.93 0 64.896 8.298 97.666 25.933c67.899 36.5685 102.496 94.7147 102.496 145.048
c0 47.0724 -30.26 87.3105 -91.838 96.6735c-4.928 0.774 -19.404 1.366 -29.043 1.366c-3.332 0 -6.086 -0.071 -7.668 -0.229z" fill="currentColor"/>
</g>
<g transform="translate(41.5010, 13.1110)">
<rect x="-0.0650" y="-1.8100" width="0.1300" height="3.1639" ry="0.0400" fill="currentColor"/>
</g>
<g transform="translate(58.0540, 10.1624)">
<text font-family="sans-serif" font-size="2.6163" text-anchor="start" fill="currentColor">
<tspan>F</tspan>
</text>
</g>
<g transform="translate(59.5563, 10.1624)">
<text font-family="sans-serif" font-size="2.6163" text-anchor="start" fill="currentColor">
<tspan>m</tspan>
</text>
</g>
<g transform="translate(62.1170, 8.9732)">
<text font-family="sans-serif" font-size="1.8500" text-anchor="start" fill="currentColor">
<tspan>9</tspan>
</text>
</g>
<g color="rgb(100.0000%, 100.0000%, 100.0000%)">
<g transform="translate(40.3030, 24.1033)">
<rect x="0.1229" y="-0.6487" width="1.2292" height="1.2974" ry="0.0000" fill="currentColor"/>
</g>
</g>
<g transform="translate(40.4259, 24.7520)">
<text font-family="serif" font-weight="bold" font-size="1.7461" text-anchor="start" fill="currentColor">
<tspan>4</tspan>
</text>
</g>
<g transform="translate(40.3030, 14.6110)">
<path transform="scale(0.0040, -0.0040)" d="M187.183 134.281c-101.52 -10.366 -187.183 -91.0474 -187.183 -170.141c0 -6.9305 0.65771 -13.8488 2.02009 -20.7065c9.91611 -49.7954 56.5823 -77.9434 113.55 -77.9434c30.93 0 64.896 8.298 97.666 25.933c67.899 36.5685 102.496 94.7147 102.496 145.048
c0 47.0724 -30.26 87.3105 -91.838 96.6735c-4.928 0.774 -19.404 1.366 -29.043 1.366c-3.332 0 -6.086 -0.071 -7.668 -0.229z" fill="currentColor"/>
</g>
</svg>
